<svg xmlns="http://www.w3.org/2000/svg" width="129.356" height="23.333" viewBox="0 0 129.356 23.333">
  <g id="cards" transform="translate(-1006.75 -4238)">
    <path id="iconmonstr-payment-3" d="M28.674,14.436l.547,2.5h-1.96l.941-2.422.314-.827ZM35,6.917v17.5a2.918,2.918,0,0,1-2.917,2.917H2.917A2.918,2.918,0,0,1,0,24.417V6.917A2.918,2.918,0,0,1,2.917,4H32.083A2.918,2.918,0,0,1,35,6.917ZM10,20l3.717-8.646h-2.5L8.9,17.261l-.246-1.2-.828-3.981a.988.988,0,0,0-1.07-.732H2.947l-.031.179a9.988,9.988,0,0,1,2.481.949L7.5,20H10Zm7.034-8.654H14.668L13.192,20.01h2.361Zm6.745,5.832c.009-.986-.62-1.735-1.982-2.354-.825-.4-1.331-.668-1.326-1.073,0-.36.427-.745,1.352-.745a4.344,4.344,0,0,1,1.768.332l.211.1.319-1.877A6.078,6.078,0,0,0,22,11.2c-2.333,0-3.977,1.175-3.991,2.86-.013,1.245,1.174,1.94,2.069,2.354.919.424,1.228.7,1.224,1.075-.006.58-.734.846-1.413.846a4.947,4.947,0,0,1-2.222-.455l-.3-.139-.331,1.94a7.457,7.457,0,0,0,2.631.462C22.143,20.138,23.755,18.976,23.774,17.177Zm8.31,2.835-1.912-8.658H28.347a1.175,1.175,0,0,0-1.237.719L23.6,20.012h2.479l.5-1.3,3.025,0,.287,1.3h2.192Z" transform="translate(1048 4234)"/>
    <path id="iconmonstr-payment-27" d="M20.044,20.425a.415.415,0,1,1-.413-.439A.411.411,0,0,1,20.044,20.425Zm-8.832-.438a.44.44,0,1,0,.413.439A.412.412,0,0,0,11.212,19.987Zm4.4-.014a.352.352,0,0,0-.364.333h.712A.34.34,0,0,0,15.607,19.972Zm6.792.014a.44.44,0,1,0,.413.439A.412.412,0,0,0,22.4,19.987ZM31.106,5.592V23.737a2.593,2.593,0,0,1-2.592,2.592H2.592A2.593,2.593,0,0,1,0,23.737V5.592A2.593,2.593,0,0,1,2.592,3H28.514a2.593,2.593,0,0,1,2.592,2.592ZM7.186,13.349a5.165,5.165,0,0,0,7.882,4.392,5.73,5.73,0,0,1,0-8.785,5.165,5.165,0,0,0-7.882,4.392Zm3.041,6.9a.511.511,0,0,0-.539-.546.533.533,0,0,0-.482.244.5.5,0,0,0-.454-.244.453.453,0,0,0-.4.2v-.17h-.3v1.371h.3v-.761a.321.321,0,0,1,.336-.364c.2,0,.3.13.3.362v.763h.3v-.761a.323.323,0,0,1,.336-.364c.2,0,.3.13.3.362v.763h.3V20.25Zm1.681-.511h-.3V19.9a.521.521,0,0,0-.433-.2.722.722,0,0,0,0,1.441.519.519,0,0,0,.433-.2v.166h.3Zm1.509.959c0-.241-.18-.367-.48-.411l-.14-.021c-.13-.017-.232-.043-.232-.135s.1-.161.261-.161a.882.882,0,0,1,.428.118l.13-.241a1.026,1.026,0,0,0-.56-.144c-.347,0-.57.166-.57.439,0,.224.166.362.473.4l.14.021c.163.023.241.066.241.144,0,.106-.109.166-.312.166a.731.731,0,0,1-.456-.144l-.14.232a.979.979,0,0,0,.594.179c.4,0,.625-.187.625-.447Zm1.328.341-.086-.255a.551.551,0,0,1-.264.078c-.149,0-.2-.092-.2-.229v-.62h.487V19.74H14.2v-.416h-.3v.416h-.279v.272H13.9v.626c0,.319.123.508.476.508a.712.712,0,0,0,.373-.108Zm1.52-.614a.658.658,0,0,0-.652-.721.721.721,0,0,0,.019,1.441.839.839,0,0,0,.563-.192l-.146-.22a.653.653,0,0,1-.4.144.383.383,0,0,1-.411-.336h1.019l.008-.117Zm1.177-.682-.213-.038a.4.4,0,0,0-.362.2V19.74h-.3v1.371h.3v-.77c0-.227.1-.353.293-.353l.187.035.092-.281Zm.4.682a.41.41,0,0,1,.413-.439.6.6,0,0,1,.359.123l.144-.241a.716.716,0,0,0-.494-.163.721.721,0,1,0,0,1.441.718.718,0,0,0,.494-.163l-.144-.241a.6.6,0,0,1-.359.123.409.409,0,0,1-.412-.439Zm2.483-.686h-.3V19.9a.521.521,0,0,0-.433-.2.722.722,0,0,0,0,1.441.519.519,0,0,0,.433-.2v.166h.3Zm1.262,0-.213-.038a.4.4,0,0,0-.362.2V19.74h-.3v1.371h.3v-.77c0-.227.1-.353.293-.353l.187.035.092-.281Zm1.506-.555h-.3V19.9a.521.521,0,0,0-.433-.2.722.722,0,0,0,0,1.441.519.519,0,0,0,.433-.2v.166h.3Zm.828-5.839a5.165,5.165,0,1,0-5.165,5.165A5.166,5.166,0,0,0,23.921,13.349Z" transform="translate(1105 4235)"/>
    <path id="iconmonstr-shield-27" d="M11.625,0C8.394,2.747,6.369,2.875,3,2.875V13.929C3,18.341,6.07,19.492,11.625,23c5.555-3.508,8.625-4.659,8.625-9.071V2.875C16.88,2.875,14.856,2.747,11.625,0ZM11.1,14.375,7.792,11.153,8.977,9.966,11.1,12l4.2-4.289L16.486,8.9,11.1,14.375Z" transform="translate(1003.75 4238.167)"/>
  </g>
</svg>
