<svg xmlns="http://www.w3.org/2000/svg" width="17.586" height="12.115" viewBox="0 0 17.586 12.115">
  <path id="Path_32" data-name="Path 32" d="M98.524,106.38a.586.586,0,0,0-.525.586v10.942a.586.586,0,0,0,.586.586H115a.586.586,0,0,0,.586-.586V106.967a.586.586,0,0,0-.586-.586H98.524Zm1.435,1.172h13.666l-6.833,6.24Zm-.788.861,4.775,4.366-4.775,3.774Zm15.241,0v8.139l-4.775-3.774Zm-9.587,5.166,1.569,1.435a.587.587,0,0,0,.794,0l1.569-1.435,4.732,3.743h-13.4Z" transform="translate(-97.999 -106.38)" fill="#fff"/>
</svg>
