<svg xmlns="http://www.w3.org/2000/svg" width="16" height="16.347" viewBox="0 0 16 16.347">
  <g id="Google__G__Logo" transform="translate(26.754 -39.239)">
    <path id="Path_34" data-name="Path 34" d="M-6.928,50.785a9.47,9.47,0,0,0-.129-1.546h-7.7v3.072h4.407a3.8,3.8,0,0,1-1.635,2.438v2.043h2.629A7.992,7.992,0,0,0-6.928,50.785Z" transform="translate(-3.826 -3.189)" fill="#4285f4"/>
    <path id="Path_35" data-name="Path 35" d="M-18.169,60.143a7.786,7.786,0,0,0,5.4-1.982L-15.4,56.117a4.931,4.931,0,0,1-2.772.79,4.881,4.881,0,0,1-4.584-3.378h-2.711v2.1A8.161,8.161,0,0,0-18.169,60.143Z" transform="translate(-0.411 -4.556)" fill="#34a853"/>
    <path id="Path_36" data-name="Path 36" d="M-23.164,51.083a4.743,4.743,0,0,1-.259-1.56,4.927,4.927,0,0,1,.259-1.56v-2.1h-2.711a8.079,8.079,0,0,0-.879,3.665,8.079,8.079,0,0,0,.879,3.665Z" transform="translate(0 -2.111)" fill="#fbbc05"/>
    <path id="Path_37" data-name="Path 37" d="M-18.169,42.474A4.435,4.435,0,0,1-15.036,43.7l2.33-2.33a7.815,7.815,0,0,0-5.463-2.132,8.161,8.161,0,0,0-7.3,4.509l2.711,2.1A4.881,4.881,0,0,1-18.169,42.474Z" transform="translate(-0.411 0)" fill="#ea4335"/>
  </g>
</svg>
