<svg width="30" height="31" viewBox="0 0 30 31" fill="none" xmlns="http://www.w3.org/2000/svg">
<rect y="1" width="30" height="30" fill="white"/>
<path d="M26.8571 5.43436L14.8565 1.83417L2.85714 5.434V18.7214C2.85714 22.79 9.02584 27.6469 14.8571 29.4857C20.6897 27.6451 26.8571 22.7898 26.8571 18.7214V5.43436ZM27.2771 4.66548C27.5368 4.74383 27.7143 4.9814 27.7143 5.25203V18.7214C27.7143 24.1361 19.4588 28.9508 15.0383 30.3271C14.9796 30.3455 14.9183 30.354 14.8571 30.354C14.796 30.354 14.7347 30.3455 14.6759 30.3271C10.2555 28.952 2 24.1361 2 18.7214V5.25203C2 4.9814 2.17753 4.74262 2.43594 4.66548L14.6808 0.992009C14.796 0.957742 14.9172 0.957742 15.0323 0.992009L27.2771 4.66548Z" fill="black"/>
<path d="M15.1962 20.3195C16.7836 20.3195 18.2774 19.8262 19.4122 18.9292V14.8016H15.0671V16.3049H17.5731V18.0133L17.5352 18.0384C16.8632 18.4829 16.0526 18.7184 15.1958 18.7184C13.3599 18.7184 11.9218 17.2578 11.9218 15.3946C11.9218 13.6159 13.3908 12.1682 15.1958 12.1682C16.2412 12.1682 17.1907 12.4882 17.8768 13.0684L19.0271 11.7988C18.0345 10.9289 16.712 10.4697 15.1958 10.4697C12.3542 10.4693 10.042 12.6786 10.042 15.3937C10.042 18.1101 12.3542 20.3195 15.1962 20.3195Z" fill="black"/>
</svg>
