<svg width="32" height="32" viewBox="0 0 32 32" fill="none" xmlns="http://www.w3.org/2000/svg">
<rect x="1" y="1" width="30" height="30" fill="white"/>
<path d="M30.7912 18.377L30.2917 17.7111C29.4968 16.6337 29.4826 15.1766 30.2662 14.1014L30.7488 13.4339C31.1305 12.9061 30.9544 12.1761 30.3604 11.8663L29.622 11.4785C28.4331 10.8576 27.7821 9.5511 28.0084 8.23941L28.1472 7.42987C28.2566 6.78993 27.7654 6.19518 27.0843 6.16765L26.2476 6.1351C24.9087 6.07803 23.7517 5.18777 23.3803 3.91355L23.1498 3.1261C22.9634 2.49695 22.2453 2.1648 21.6155 2.4284L20.8501 2.75174C19.6229 3.27268 18.1999 2.96332 17.2942 1.98009L16.74 1.37218C16.2821 0.871546 15.4795 0.877094 15.0313 1.38208L14.4821 1.99823C13.5977 2.98895 12.1751 3.31849 10.95 2.81735L10.1741 2.50532C9.54126 2.24888 8.82674 2.59356 8.65111 3.22476L8.4329 4.01548C8.08003 5.29333 6.93308 6.20094 5.59297 6.27708L4.7614 6.32236C4.08287 6.36027 3.59953 6.96275 3.71814 7.59386L3.87049 8.39898C4.11559 9.70591 3.48278 11.0154 2.30411 11.6604L1.57474 12.0533C0.98853 12.3729 0.8224 13.1094 1.20847 13.6272L1.70903 14.2945C2.50394 15.3719 2.51807 16.829 1.73454 17.9042L1.2519 18.5717C0.870149 19.0996 1.04634 19.8296 1.6403 20.1394L2.37873 20.5271C3.56759 21.148 4.21856 22.4545 3.99225 23.7662L3.8535 24.5758C3.74411 25.2157 4.23526 25.8105 4.91637 25.838L5.75306 25.8705C7.09204 25.9276 8.24901 26.8179 8.62043 28.0921L8.8509 28.8795C9.03725 29.5087 9.75537 29.8408 10.3852 29.5772L11.1506 29.2539C12.3778 28.733 13.8008 29.0423 14.7065 30.0256L15.261 30.6338C15.7128 31.1281 16.5152 31.1215 16.9628 30.6171L17.512 30.0009C18.3964 29.0102 19.819 28.6807 21.044 29.1818L21.82 29.4938C22.4528 29.7503 23.1674 29.4056 23.343 28.7744L23.5612 27.9837C23.9141 26.7058 25.061 25.7982 26.4011 25.7221L27.2327 25.6768C27.9112 25.6389 28.3946 25.0364 28.276 24.4053L28.1236 23.6002C27.8785 22.2932 28.5113 20.9838 29.69 20.3387L30.4255 19.9426C31.0113 19.6285 31.1779 18.8969 30.7912 18.377Z" stroke="black"/>
<path d="M21.7925 10.2072C21.5162 9.93093 21.0688 9.93093 20.7925 10.2072L10.2072 20.7927C9.93093 21.0688 9.93093 21.5167 10.2072 21.7928C10.3454 21.9309 10.5264 22 10.7072 22C10.8881 22 11.0691 21.9309 11.2073 21.7928L21.7925 11.2073C22.0688 10.9312 22.0688 10.4835 21.7925 10.2072Z" fill="black"/>
<path d="M12.6399 15.2796C14.0954 15.2796 15.2796 14.0954 15.2796 12.6399C15.2796 11.1844 14.0954 10 12.6399 10C11.1842 10 10 11.1842 10 12.6399C10 14.0956 11.1842 15.2796 12.6399 15.2796ZM12.6399 11.4145C13.3155 11.4145 13.8651 11.9642 13.8651 12.6399C13.8651 13.3155 13.3155 13.8651 12.6399 13.8651C11.9642 13.8651 11.4145 13.3153 11.4145 12.6399C11.4145 11.9642 11.9642 11.4145 12.6399 11.4145Z" fill="black"/>
<path d="M19.3604 16.7202C17.9049 16.7202 16.7207 17.9044 16.7207 19.3599C16.7207 20.8154 17.9049 21.9998 19.3604 21.9998C20.8159 21.9998 22 20.8154 22 19.3599C22 17.9044 20.8159 16.7202 19.3604 16.7202ZM19.3604 20.5853C18.6847 20.5853 18.1352 20.0355 18.1352 19.3599C18.1352 18.6842 18.6847 18.1347 19.3604 18.1347C20.036 18.1347 20.5855 18.6845 20.5855 19.3599C20.5855 20.0355 20.036 20.5853 19.3604 20.5853Z" fill="black"/>
</svg>
