<svg xmlns="http://www.w3.org/2000/svg" width="145" height="44.323" viewBox="0 0 145 44.323">
  <g id="_2life_logo" data-name="2life_logo" transform="translate(-128.3 -96.3)">
    <g id="Group_3" data-name="Group 3" transform="translate(128.3 96.3)">
      <path id="Path_12" data-name="Path 12" d="M141.712,132.153h30.22v8.577H128.3v-1.209c0-12.261,9.671-16.348,16.348-18.708l7.944-2.878c4.144-1.5,6.447-2.763,6.447-5.7,0-3.224-3.454-4.375-8.231-4.375s-8.98,1.669-9.325,6.85H128.876c.576-11.11,8.462-15.312,21.471-15.312,13.124,0,21.528,2.82,21.528,12.433,0,8-5.583,11.4-13.93,13.642l-9.383,2.878C144.878,129.39,142.4,131,141.712,132.153Z" transform="translate(-128.3 -97.616)" fill="#111"/>
      <path id="Path_13" data-name="Path 13" d="M206,99h11.282v41.56H206Z" transform="translate(-161.274 -97.446)" fill="#111"/>
      <path id="Path_14" data-name="Path 14" d="M228.3,98.6h11.512v6.85H228.3Zm.115,10.822H239.7V140.39H228.415Z" transform="translate(-170.738 -97.276)" fill="#111"/>
      <path id="Path_15" data-name="Path 15" d="M263.72,108.446h8.174v6.965H263.72v24H252.438v-24H247.2v-6.965h5.238v-2.187c0-7.771,5.3-9.958,14.506-9.958,3.223,0,4.835.345,5.641.345v7.713c-.806-.058-1.669-.173-3.4-.173C264.469,104.186,263.318,105.107,263.72,108.446Z" transform="translate(-178.758 -96.3)" fill="#111"/>
      <path id="Path_16" data-name="Path 16" d="M326.427,134.756H297.3c.633,4.432,3.569,6.5,8.807,6.5,5.871,0,7.425-2.418,7.771-3.4h12.261c-.4,5.181-4.663,10.822-20.032,10.822-13.7,0-20.607-6.159-20.607-16.693s6.907-16.693,20.55-16.693,20.55,6.159,20.55,16.693A22.942,22.942,0,0,1,326.427,134.756Zm-28.839-6.907h16.866c-.979-3.454-3.857-5.123-8.462-5.123C301.445,122.726,298.624,124.337,297.588,127.849Z" transform="translate(-195.012 -104.363)" fill="#111"/>
    </g>
    <path id="Path_17" data-name="Path 17" d="M352.6,97.3v13.239h15.887V97.3Zm10.994,11.225h-2.648l-3.108-6.332v6.332h-2.475V99.372h2.475v2.36h2.59l1.842,4.26h.058l1.842-4.26h2.821Z" transform="translate(-95.187 -0.424)" fill="#111"/>
  </g>
</svg>
